<svg width="26" height="26" viewBox="0 0 26 26" fill="none" xmlns="http://www.w3.org/2000/svg">
<g id="Frame">
<g id="Group">
<path id="Vector" d="M9.2857 5.57129C8.76397 5.57129 7.93857 5.57129 6.80951 5.57129C6.12573 5.57129 5.57141 6.1256 5.57141 6.80938V20.4284C5.57141 21.1122 6.12573 21.6665 6.80951 21.6665H19.1905C19.8742 21.6665 20.4286 21.1122 20.4286 20.4284V6.80938C20.4286 6.1256 19.8742 5.57129 19.1905 5.57129C18.0899 5.57129 17.2645 5.57129 16.7143 5.57129" stroke="white" stroke-width="1.5" stroke-linecap="round" stroke-linejoin="round"/>
<path id="Vector_2" fill-rule="evenodd" clip-rule="evenodd" d="M10.5238 4.33325H15.4762C16.16 4.33325 16.7143 4.88757 16.7143 5.57135C16.7143 6.25513 16.16 6.80944 15.4762 6.80944H10.5238C9.84002 6.80944 9.28571 6.25513 9.28571 5.57135C9.28571 4.88757 9.84002 4.33325 10.5238 4.33325Z" stroke="white" stroke-width="1.5" stroke-linecap="round" stroke-linejoin="round"/>
<path id="Vector_3" d="M11.5988 10.5237H17.5988" stroke="white" stroke-width="1.5" stroke-linecap="round" stroke-linejoin="round"/>
<path id="Vector_4" d="M11.5988 14.2375H17.5988" stroke="white" stroke-width="1.5" stroke-linecap="round" stroke-linejoin="round"/>
<path id="Vector_5" d="M11.5988 17.9524H17.5988" stroke="white" stroke-width="1.5" stroke-linecap="round" stroke-linejoin="round"/>
<path id="Vector_6" d="M8.07916 10.5237H8.92916" stroke="white" stroke-width="1.5" stroke-linecap="round" stroke-linejoin="round"/>
<path id="Vector_7" d="M8.07916 14.2375H8.92916" stroke="white" stroke-width="1.5" stroke-linecap="round" stroke-linejoin="round"/>
<path id="Vector_8" d="M8.07916 17.9524H8.92916" stroke="white" stroke-width="1.5" stroke-linecap="round" stroke-linejoin="round"/>
</g>
</g>
</svg>
