<svg width="20" height="20" viewBox="0 0 20 20" fill="none" xmlns="http://www.w3.org/2000/svg">
<g id="Group 48147">
<path id="Vector" d="M20 9.375C20 10.4105 19.1605 11.25 18.125 11.25C17.0895 11.25 16.25 10.4105 16.25 9.375V1.87501C16.25 0.839508 17.0895 8.58307e-06 18.125 8.58307e-06C19.1605 8.58307e-06 20 0.839508 20 1.87501V9.375Z" fill="#9B9EE7" fill-opacity="0.26"/>
<path id="Vector_2" d="M15 9.58338V2.79514C15 1.84814 14.465 0.982515 13.618 0.559015L13.5557 0.527891C12.8615 0.180765 12.0959 1.52588e-05 11.3197 1.52588e-05H4.54951C3.35776 1.52588e-05 2.33176 0.841139 2.09801 2.00976L0.598011 9.50976C0.288637 11.0567 1.47189 12.5 3.04951 12.5H7.50001V17.5C7.50001 18.8807 8.61926 20 10 20C10.6904 20 11.25 19.4404 11.25 18.75V17.9167C11.25 16.8348 11.6009 15.7822 12.25 14.9167L14 12.5833C14.6491 11.7179 15 10.6652 15 9.58338Z" fill="#9B9EE7" fill-opacity="0.26"/>
</g>
</svg>
