<svg width="24" height="24" viewBox="0 0 24 24" fill="none" xmlns="http://www.w3.org/2000/svg">
<g id="Frame 39750">
<path id="Vector" d="M17.4007 1.06442C17.717 1.19539 17.9231 1.50388 17.9231 1.84608V6.0764H22.1538C22.496 6.0764 22.8045 6.28255 22.9355 6.59869C23.0665 6.91484 22.9942 7.27875 22.7522 7.52073L19.3676 10.905C19.2089 11.0636 18.9936 11.1528 18.7692 11.1528H14.0428L12.7888 12.4066C12.8262 12.5464 12.8462 12.6933 12.8462 12.8449C12.8462 13.5688 12.3915 14.1866 11.7521 14.4283C11.752 14.4282 11.7521 14.4283 11.7521 14.4283C11.566 14.4986 11.3645 14.5371 11.1538 14.5371C10.2192 14.5371 9.46154 13.7795 9.46154 12.8449C9.46154 12.8449 9.46154 12.845 9.46154 12.8449C9.46154 12.8186 9.46215 12.7924 9.46333 12.7663C9.50439 11.8683 10.2456 11.1528 11.1538 11.1528C11.3054 11.1528 11.4524 11.1727 11.5922 11.2101L12.8462 9.95627V5.23033C12.8462 5.00596 12.9353 4.79075 13.094 4.63208L16.4785 1.24783C16.7205 1.00586 17.0845 0.933476 17.4007 1.06442ZM18.4188 9.46065L20.1111 7.76852H17.0769C16.6097 7.76852 16.2308 7.38974 16.2308 6.92246V3.88866L14.5385 5.58079V9.46065H18.4188ZM21.215 11.4514C21.2776 11.9073 21.3099 12.3729 21.3099 12.8461C21.3099 18.4539 16.7633 23 11.155 23C5.54652 23 1 18.4539 1 12.8461C1 7.23824 5.54652 2.6922 11.155 2.6922C11.6271 2.6922 12.0917 2.72441 12.5467 2.78677L11.8977 3.4357C11.6272 3.70622 11.424 4.03151 11.299 4.38552C11.2511 4.38473 11.2031 4.38432 11.155 4.38432C6.48116 4.38432 2.69231 8.17277 2.69231 12.8461C2.69231 17.5194 6.48116 21.3079 11.155 21.3079C15.8287 21.3079 19.6176 17.5194 19.6176 12.8461C19.6176 12.7972 19.6172 12.7484 19.6164 12.6997C19.9698 12.5746 20.2945 12.3717 20.5646 12.1016L21.215 11.4514ZM11.1538 6.92251C7.88262 6.92251 5.23077 9.57409 5.23077 12.8449C5.23077 16.1158 7.88262 18.7673 11.1538 18.7673C14.425 18.7673 17.0769 16.1159 17.0769 12.845H15.3846C15.3846 15.1813 13.4904 17.0752 11.1538 17.0752C8.81726 17.0752 6.92308 15.1813 6.92308 12.8449C6.92308 10.5086 8.81726 8.61463 11.1538 8.61463V6.92251Z" fill="white"/>
</g>
</svg>
