<svg width="20" height="20" viewBox="0 0 20 20" fill="none" xmlns="http://www.w3.org/2000/svg">
<g id="Frame" clip-path="url(#clip0_225_517)">
<path id="Vector" d="M15.9375 12.25H19.0625C19.5803 12.25 20 11.8303 20 11.3125V1.9375C20 1.41973 19.5803 1 19.0625 1H15.9375C15.4197 1 15 1.41973 15 1.9375V11.3125C15 11.8303 15.4197 12.25 15.9375 12.25ZM17.5 2.5625C18.0178 2.5625 18.4375 2.98223 18.4375 3.5C18.4375 4.01777 18.0178 4.4375 17.5 4.4375C16.9822 4.4375 16.5625 4.01777 16.5625 3.5C16.5625 2.98223 16.9822 2.5625 17.5 2.5625ZM5 16.8183C5 15.1614 6.01445 14.232 6.29988 13.125H2.32633C1.02176 13.125 0.00613403 12.0412 4.00543e-05 10.8555C-0.00324059 10.1548 0.294804 9.40051 0.759375 8.93379L0.763672 8.92949C0.379454 8.01789 0.441914 6.74055 1.12727 5.82523C0.788164 4.81371 1.12996 3.57117 1.76719 2.90504C1.5993 2.21762 1.67953 1.63258 2.00734 1.1616C2.80461 0.0161324 4.78063 0 6.4516 0L6.56273 4.00543e-05C8.44895 0.000703812 9.99266 0.687462 11.233 1.2393C11.8564 1.5166 12.6714 1.85988 13.2897 1.87125C13.5452 1.87594 13.75 2.08441 13.75 2.33992V10.6903C13.75 10.8153 13.6999 10.9353 13.611 11.0232C12.0636 12.5522 11.3982 14.1711 10.1299 15.4416C9.5516 16.0209 9.34129 16.8961 9.13797 17.7424C8.96426 18.4651 8.6009 20 7.8125 20C6.875 20 5 19.6875 5 16.8183Z" fill="white"/>
</g>
<defs>
<clipPath id="clip0_225_517">
<rect width="20" height="20" fill="white" transform="matrix(-1 0 0 -1 20 20)"/>
</clipPath>
</defs>
</svg>
