<svg width="26" height="25" viewBox="0 0 26 25" fill="none" xmlns="http://www.w3.org/2000/svg">
<g id="Frame">
<path id="Vector" fill-rule="evenodd" clip-rule="evenodd" d="M13.1959 20C17.3238 20 20.6701 16.6422 20.6701 12.5C20.6701 8.35786 17.3238 5 13.1959 5C9.068 5 5.72168 8.35786 5.72168 12.5C5.72168 16.6422 9.068 20 13.1959 20ZM16.6594 11.2879C17.0242 10.9218 17.0242 10.3282 16.6594 9.96208C16.2945 9.59597 15.7029 9.59597 15.3381 9.96208L12.2616 13.0492L11.0537 11.8371C10.6888 11.471 10.0973 11.471 9.73243 11.8371C9.36758 12.2032 9.36758 12.7968 9.73243 13.1629L11.601 15.0379C11.9659 15.404 12.5574 15.404 12.9223 15.0379L16.6594 11.2879Z" fill="white"/>
</g>
</svg>
