<svg width="24" height="24" viewBox="0 0 24 24" fill="none" xmlns="http://www.w3.org/2000/svg">
<g id="Frame" clip-path="url(#clip0_195_5570)">
<path id="Vector" d="M20.98 2.55989C20.3393 1.92657 19.4969 1.53776 18.5993 1.46103C17.7017 1.3843 16.8056 1.6245 16.0667 2.13989C18.4418 3.1288 20.3821 4.93897 21.5333 7.23989C21.9777 6.51027 22.1646 5.65277 22.0643 4.8044C21.964 3.95603 21.5822 3.16577 20.98 2.55989Z" fill="white"/>
<path id="Vector_2" d="M7.61334 2.28659C6.8775 1.70218 5.95319 1.40732 5.01486 1.45768C4.07653 1.50803 3.18908 1.90012 2.52001 2.55993C1.85646 3.22787 1.46347 4.11767 1.4167 5.05802C1.36993 5.99836 1.67268 6.92277 2.26668 7.65326C3.33636 5.27328 5.23738 3.36516 7.61334 2.28659Z" fill="white"/>
<path id="Vector_3" d="M10.9333 2.72655C9.19273 2.92988 7.54455 3.61914 6.1774 4.71544C4.81025 5.81174 3.77936 7.27079 3.2027 8.92562C2.62605 10.5804 2.52694 12.3642 2.91671 14.0727C3.30647 15.7812 4.16937 17.3455 5.40665 18.5865L3.70665 20.2865C3.64493 20.3496 3.59623 20.4242 3.56333 20.506C3.53043 20.5879 3.51397 20.6754 3.5149 20.7636C3.51583 20.8518 3.53412 20.939 3.56874 21.0201C3.60336 21.1013 3.65362 21.1748 3.71665 21.2365C3.77969 21.2983 3.85426 21.347 3.93612 21.3799C4.01797 21.4128 4.10551 21.4292 4.19372 21.4283C4.28194 21.4274 4.36911 21.4091 4.45025 21.3745C4.5314 21.3398 4.60493 21.2896 4.66665 21.2265L6.43998 19.4532C8.06167 20.6804 10.042 21.34 12.0757 21.3304C14.1093 21.3207 16.0833 20.6424 17.6933 19.3999L19.52 21.2265C19.6475 21.3358 19.8116 21.3928 19.9794 21.3864C20.1471 21.3799 20.3063 21.3103 20.425 21.1916C20.5438 21.0729 20.6133 20.9137 20.6198 20.7459C20.6263 20.5781 20.5692 20.4141 20.46 20.2865L18.6667 18.5199C20.0124 17.1414 20.8986 15.3802 21.2037 13.478C21.5087 11.5758 21.2177 9.6258 20.3704 7.89559C19.5232 6.16538 18.1614 4.73973 16.4717 3.81426C14.7821 2.88878 12.8475 2.50884 10.9333 2.72655ZM13.0533 19.9332C11.3964 20.1502 9.71307 19.8429 8.2397 19.0544C6.76632 18.266 5.57684 17.0359 4.83824 15.5369C4.09963 14.0379 3.84898 12.3452 4.12147 10.6965C4.39396 9.04775 5.1759 7.52575 6.35754 6.34411C7.53918 5.16246 9.06119 4.38052 10.7099 4.10803C12.3586 3.83554 14.0513 4.08619 15.5503 4.8248C17.0493 5.5634 18.2794 6.75288 19.0679 8.22626C19.8564 9.69963 20.1637 11.3829 19.9467 13.0399C19.7177 14.7879 18.9178 16.4113 17.6713 17.6578C16.4247 18.9044 14.8013 19.7043 13.0533 19.9332Z" fill="white"/>
<path id="Vector_4" d="M16.6134 13.5601L12.5734 11.5601V6.3334C12.5734 6.17427 12.5101 6.02166 12.3976 5.90913C12.2851 5.79661 12.1325 5.7334 11.9734 5.7334C11.8142 5.7334 11.6616 5.79661 11.5491 5.90913C11.4366 6.02166 11.3734 6.17427 11.3734 6.3334V12.3334L16.08 14.6667C16.2232 14.7366 16.3883 14.7467 16.539 14.6948C16.6896 14.6429 16.8135 14.5333 16.8834 14.3901C16.9532 14.2468 16.9633 14.0818 16.9114 13.9311C16.8595 13.7804 16.7499 13.6566 16.6067 13.5867L16.6134 13.5601Z" fill="white"/>
</g>
<defs>
<clipPath id="clip0_195_5570">
<rect width="24" height="24" fill="white"/>
</clipPath>
</defs>
</svg>
