<svg width="67" height="60" viewBox="0 0 67 60" fill="none" xmlns="http://www.w3.org/2000/svg">
<path d="M3.024 42.88V54H1.2V42.88H3.024ZM10.1868 45.04C10.8801 45.04 11.4988 45.184 12.0428 45.472C12.5974 45.76 13.0294 46.1867 13.3388 46.752C13.6481 47.3173 13.8028 48 13.8028 48.8V54H11.9948V49.072C11.9948 48.2827 11.7974 47.68 11.4028 47.264C11.0081 46.8373 10.4694 46.624 9.78675 46.624C9.10408 46.624 8.56008 46.8373 8.15475 47.264C7.76008 47.68 7.56275 48.2827 7.56275 49.072V54H5.73875V45.184H7.56275V46.192C7.86142 45.8293 8.24008 45.5467 8.69875 45.344C9.16808 45.1413 9.66408 45.04 10.1868 45.04ZM15.8414 49.552C15.8414 48.6667 16.0227 47.8827 16.3854 47.2C16.7587 46.5173 17.26 45.9893 17.8894 45.616C18.5294 45.232 19.2334 45.04 20.0014 45.04C20.6947 45.04 21.2974 45.1787 21.8094 45.456C22.332 45.7227 22.748 46.0587 23.0574 46.464V45.184H24.8974V54H23.0574V52.688C22.748 53.104 22.3267 53.4507 21.7934 53.728C21.26 54.0053 20.652 54.144 19.9694 54.144C19.212 54.144 18.5187 53.952 17.8894 53.568C17.26 53.1733 16.7587 52.6293 16.3854 51.936C16.0227 51.232 15.8414 50.4373 15.8414 49.552ZM23.0574 49.584C23.0574 48.976 22.9294 48.448 22.6734 48C22.428 47.552 22.1027 47.2107 21.6974 46.976C21.292 46.7413 20.8547 46.624 20.3854 46.624C19.916 46.624 19.4787 46.7413 19.0734 46.976C18.668 47.2 18.3374 47.536 18.0814 47.984C17.836 48.4213 17.7134 48.944 17.7134 49.552C17.7134 50.16 17.836 50.6933 18.0814 51.152C18.3374 51.6107 18.668 51.9627 19.0734 52.208C19.4894 52.4427 19.9267 52.56 20.3854 52.56C20.8547 52.56 21.292 52.4427 21.6974 52.208C22.1027 51.9733 22.428 51.632 22.6734 51.184C22.9294 50.7253 23.0574 50.192 23.0574 49.584ZM27.0051 49.584C27.0051 48.6773 27.1865 47.8827 27.5491 47.2C27.9225 46.5067 28.4345 45.9733 29.0851 45.6C29.7358 45.2267 30.4825 45.04 31.3251 45.04C32.3918 45.04 33.2718 45.296 33.9651 45.808C34.6691 46.3093 35.1438 47.0293 35.3891 47.968H33.4211C33.2611 47.5307 33.0051 47.1893 32.6531 46.944C32.3011 46.6987 31.8585 46.576 31.3251 46.576C30.5785 46.576 29.9811 46.8427 29.5331 47.376C29.0958 47.8987 28.8771 48.6347 28.8771 49.584C28.8771 50.5333 29.0958 51.2747 29.5331 51.808C29.9811 52.3413 30.5785 52.608 31.3251 52.608C32.3811 52.608 33.0798 52.144 33.4211 51.216H35.3891C35.1331 52.112 34.6531 52.8267 33.9491 53.36C33.2451 53.8827 32.3705 54.144 31.3251 54.144C30.4825 54.144 29.7358 53.9573 29.0851 53.584C28.4345 53.2 27.9225 52.6667 27.5491 51.984C27.1865 51.2907 27.0051 50.4907 27.0051 49.584ZM39.6549 46.672V51.552C39.6549 51.8827 39.7295 52.1227 39.8789 52.272C40.0389 52.4107 40.3055 52.48 40.6789 52.48H41.7989V54H40.3589C39.5375 54 38.9082 53.808 38.4709 53.424C38.0335 53.04 37.8149 52.416 37.8149 51.552V46.672H36.7749V45.184H37.8149V42.992H39.6549V45.184H41.7989V46.672H39.6549ZM44.728 44.016C44.3973 44.016 44.12 43.904 43.896 43.68C43.672 43.456 43.56 43.1787 43.56 42.848C43.56 42.5173 43.672 42.24 43.896 42.016C44.12 41.792 44.3973 41.68 44.728 41.68C45.048 41.68 45.32 41.792 45.544 42.016C45.768 42.24 45.88 42.5173 45.88 42.848C45.88 43.1787 45.768 43.456 45.544 43.68C45.32 43.904 45.048 44.016 44.728 44.016ZM45.624 45.184V54H43.8V45.184H45.624ZM51.7467 52.368L54.2427 45.184H56.1787L52.8187 54H50.6427L47.2987 45.184H49.2507L51.7467 52.368ZM65.9575 49.376C65.9575 49.7067 65.9362 50.0053 65.8935 50.272H59.1575C59.2108 50.976 59.4722 51.5413 59.9415 51.968C60.4108 52.3947 60.9868 52.608 61.6695 52.608C62.6508 52.608 63.3442 52.1973 63.7495 51.376H65.7175C65.4508 52.1867 64.9655 52.8533 64.2615 53.376C63.5682 53.888 62.7042 54.144 61.6695 54.144C60.8268 54.144 60.0695 53.9573 59.3975 53.584C58.7362 53.2 58.2135 52.6667 57.8295 51.984C57.4562 51.2907 57.2695 50.4907 57.2695 49.584C57.2695 48.6773 57.4508 47.8827 57.8135 47.2C58.1868 46.5067 58.7042 45.9733 59.3655 45.6C60.0375 45.2267 60.8055 45.04 61.6695 45.04C62.5015 45.04 63.2428 45.2213 63.8935 45.584C64.5442 45.9467 65.0508 46.4587 65.4135 47.12C65.7762 47.7707 65.9575 48.5227 65.9575 49.376ZM64.0535 48.8C64.0428 48.128 63.8028 47.5893 63.3335 47.184C62.8642 46.7787 62.2828 46.576 61.5895 46.576C60.9602 46.576 60.4215 46.7787 59.9735 47.184C59.5255 47.5787 59.2588 48.1173 59.1735 48.8H64.0535Z" fill="white"/>
<g style="mix-blend-mode:multiply">
<rect x="19" width="30" height="30" rx="15" fill="#424753" fill-opacity="0.8"/>
</g>
<path d="M34 6C29.0374 6 25 10.0374 25 15C25 19.9626 29.0374 24 34 24C38.9626 24 43 19.9626 43 15C43 10.0374 38.9626 6 34 6ZM34 22.2C30.0301 22.2 26.8 18.9699 26.8 15C26.8 11.0301 30.0301 7.8 34 7.8C37.9699 7.8 41.2 11.0301 41.2 15C41.2 18.9699 37.9699 22.2 34 22.2Z" fill="white"/>
<path d="M36.546 17.5445C36.217 17.8724 35.8284 18.1345 35.4012 18.3167C34.632 18.6415 33.7738 18.6889 32.9735 18.4508C32.4629 18.299 31.9962 18.037 31.6039 17.6874C31.2331 17.357 30.6798 17.2371 30.2681 17.5149C29.856 17.7931 29.7431 18.3593 30.0859 18.7195C30.3554 19.0027 30.6552 19.2567 30.9804 19.4768C31.5651 19.8722 32.222 20.1484 32.9136 20.2895C33.6307 20.4358 34.37 20.4358 35.0871 20.2895C35.7786 20.1482 36.4355 19.872 37.0203 19.4768C37.302 19.286 37.5711 19.0646 37.8177 18.8189C37.8505 18.7862 37.883 18.753 37.915 18.7194C38.258 18.3593 38.1445 17.7935 37.7323 17.5154L37.5598 17.3989C37.2428 17.185 36.8165 17.2743 36.546 17.5445Z" fill="white"/>
<path d="M30.85 15.0008C31.5956 15.0008 32.2 14.3964 32.2 13.6508C32.2 12.9052 31.5956 12.3008 30.85 12.3008C30.1044 12.3008 29.5 12.9052 29.5 13.6508C29.5 14.3964 30.1044 15.0008 30.85 15.0008Z" fill="white"/>
<path d="M37.1435 14.9882C37.8856 14.9882 38.4872 14.3866 38.4872 13.6445C38.4872 12.9024 37.8856 12.3008 37.1435 12.3008C36.4014 12.3008 35.7998 12.9024 35.7998 13.6445C35.7998 14.3866 36.4014 14.9882 37.1435 14.9882Z" fill="white"/>
</svg>
