<svg width="18" height="18" viewBox="0 0 18 18" fill="none" xmlns="http://www.w3.org/2000/svg">
<path d="M9 0C4.0374 0 0 4.0374 0 9C0 13.9626 4.0374 18 9 18C13.9626 18 18 13.9626 18 9C18 4.0374 13.9626 0 9 0ZM9 16.2C5.0301 16.2 1.8 12.9699 1.8 9C1.8 5.0301 5.0301 1.8 9 1.8C12.9699 1.8 16.2 5.0301 16.2 9C16.2 12.9699 12.9699 16.2 9 16.2Z" fill="white"/>
<path d="M11.546 11.5445C11.217 11.8724 10.8284 12.1345 10.4012 12.3167C9.63195 12.6415 8.77379 12.6889 7.97347 12.4508C7.46293 12.299 6.99617 12.037 6.60394 11.6874C6.23311 11.357 5.67979 11.2371 5.26807 11.5149C4.85597 11.7931 4.74314 12.3593 5.08588 12.7195C5.3554 13.0027 5.65517 13.2567 5.98038 13.4768C6.56507 13.8722 7.22201 14.1484 7.91358 14.2895C8.6307 14.4358 9.36997 14.4358 10.0871 14.2895C10.7786 14.1482 11.4355 13.872 12.0203 13.4768C12.302 13.286 12.5711 13.0646 12.8177 12.8189C12.8505 12.7862 12.883 12.753 12.915 12.7194C13.258 12.3593 13.1445 11.7935 12.7323 11.5154L12.5598 11.3989C12.2428 11.185 11.8165 11.2743 11.546 11.5445Z" fill="white"/>
<path d="M5.85 9.00078C6.59558 9.00078 7.2 8.39637 7.2 7.65078C7.2 6.9052 6.59558 6.30078 5.85 6.30078C5.10442 6.30078 4.5 6.9052 4.5 7.65078C4.5 8.39637 5.10442 9.00078 5.85 9.00078Z" fill="white"/>
<path d="M12.1435 8.98818C12.8856 8.98818 13.4872 8.38659 13.4872 7.64448C13.4872 6.90238 12.8856 6.30078 12.1435 6.30078C11.4014 6.30078 10.7998 6.90238 10.7998 7.64448C10.7998 8.38659 11.4014 8.98818 12.1435 8.98818Z" fill="white"/>
</svg>
