<svg width="18" height="18" viewBox="0 0 18 18" fill="none" xmlns="http://www.w3.org/2000/svg">
<g id="Group 48189">
<path id="Vector" d="M9 1.8C7.09044 1.8 5.25909 2.55857 3.90883 3.90883C2.55857 5.25909 1.8 7.09044 1.8 9C1.8 10.9096 2.55857 12.7409 3.90883 14.0912C5.25909 15.4414 7.09044 16.2 9 16.2C10.9096 16.2 12.7409 15.4414 14.0912 14.0912C15.4414 12.7409 16.2 10.9096 16.2 9C16.2 7.09044 15.4414 5.25909 14.0912 3.90883C12.7409 2.55857 10.9096 1.8 9 1.8ZM0 9C0 4.0293 4.0293 0 9 0C13.9707 0 18 4.0293 18 9C18 13.9707 13.9707 18 9 18C4.0293 18 0 13.9707 0 9Z" fill="#9B9EE7"/>
<path id="Vector_2" d="M9.00002 7.19998C9.23872 7.19998 9.46764 7.2948 9.63642 7.46358C9.8052 7.63236 9.90002 7.86128 9.90002 8.09998V13.5C9.90002 13.7387 9.8052 13.9676 9.63642 14.1364C9.46764 14.3052 9.23872 14.4 9.00002 14.4C8.76133 14.4 8.53241 14.3052 8.36363 14.1364C8.19485 13.9676 8.10002 13.7387 8.10002 13.5V8.09998C8.10002 7.86128 8.19485 7.63236 8.36363 7.46358C8.53241 7.2948 8.76133 7.19998 9.00002 7.19998ZM10.35 4.94998C10.35 5.30802 10.2078 5.6514 9.95462 5.90457C9.70144 6.15774 9.35807 6.29998 9.00002 6.29998C8.64198 6.29998 8.2986 6.15774 8.04543 5.90457C7.79226 5.6514 7.65002 5.30802 7.65002 4.94998C7.65002 4.59193 7.79226 4.24856 8.04543 3.99538C8.2986 3.74221 8.64198 3.59998 9.00002 3.59998C9.35807 3.59998 9.70144 3.74221 9.95462 3.99538C10.2078 4.24856 10.35 4.59193 10.35 4.94998Z" fill="#9B9EE7"/>
</g>
</svg>
