<svg width="18" height="18" viewBox="0 0 18 18" fill="none" xmlns="http://www.w3.org/2000/svg">
<g clip-path="url(#clip0_2906_1045)">
<path d="M9 18C13.9706 18 18 13.9706 18 9C18 4.02944 13.9706 0 9 0C4.02944 0 0 4.02944 0 9C0 13.9706 4.02944 18 9 18Z" fill="#FFDA24"/>
<path d="M5.49176 8.10156H12.5079C13.0458 8.10156 13.4824 8.5382 13.4824 9.07609V9.09332C13.4824 11.5578 11.4817 13.5585 9.01723 13.5585H9C6.52606 13.5585 4.51758 11.55 4.51758 9.07609C4.51758 8.5382 4.95422 8.10156 5.49211 8.10156H5.49176Z" fill="black"/>
<path d="M11.7704 12.6098C11.0118 13.2043 10.0562 13.559 9.01734 13.559H9.00012C7.95633 13.559 6.99621 13.2025 6.23438 12.6041C6.8598 11.7569 7.86598 11.207 9.00012 11.207C10.1343 11.207 11.145 11.759 11.7704 12.6098Z" fill="#FF7E27"/>
<path d="M10.5437 5.94812C10.4329 5.94812 10.3211 5.91824 10.2199 5.85566C9.93091 5.67672 9.84231 5.29703 10.0209 5.00805C10.113 4.85934 10.955 3.55469 12.1535 3.55469C13.352 3.55469 14.194 4.85934 14.2861 5.00805C14.465 5.29703 14.3757 5.67602 14.0867 5.85496C13.7981 6.03355 13.4198 5.94496 13.2409 5.65703C13.0623 5.37227 12.5616 4.7848 12.1538 4.7848C11.746 4.7848 11.2454 5.37227 11.0668 5.65703C10.9504 5.84477 10.7497 5.94812 10.544 5.94812H10.5437Z" fill="black"/>
<path d="M4.23606 5.94812C4.12532 5.94812 4.01352 5.91824 3.91227 5.85566C3.62329 5.67672 3.5347 5.29703 3.71329 5.00805C3.8054 4.85934 4.64739 3.55469 5.84587 3.55469C7.04434 3.55469 7.88634 4.85934 7.97845 5.00805C8.15739 5.29703 8.06809 5.67602 7.77911 5.85496C7.49013 6.03391 7.11114 5.94461 6.9322 5.65562C6.75466 5.37262 6.25403 4.78516 5.84622 4.78516C5.43841 4.78516 4.93778 5.37262 4.75919 5.65738C4.64282 5.84512 4.44208 5.94848 4.23641 5.94848L4.23606 5.94812Z" fill="black"/>
</g>
<defs>
<clipPath id="clip0_2906_1045">
<rect width="18" height="18" fill="white"/>
</clipPath>
</defs>
</svg>
