<svg width="22" height="17" viewBox="0 0 22 17" fill="none" xmlns="http://www.w3.org/2000/svg">
<g id="Icon">
<path id="Path" fill-rule="evenodd" clip-rule="evenodd" d="M10 1.07001L5 5.07001H1V11.07H5L10 15.07V1.07001V1.07001Z" stroke="white" stroke-width="2" stroke-linecap="round" stroke-linejoin="round"/>
<path id="Shape" d="M18.7773 0.293C18.3868 -0.0975833 17.7536 -0.0976789 17.363 0.292786C16.9725 0.683252 16.9724 1.31642 17.3628 1.707L18.7773 0.293ZM17.3628 14.433C16.9724 14.8236 16.9725 15.4567 17.363 15.8472C17.7536 16.2377 18.3868 16.2376 18.7773 15.847L17.3628 14.433ZM15.2473 3.823C14.8568 3.43242 14.2236 3.43232 13.833 3.82279C13.4425 4.21325 13.4424 4.84642 13.8328 5.237L15.2473 3.823ZM13.8328 10.893C13.4424 11.2836 13.4425 11.9167 13.833 12.3072C14.2236 12.6977 14.8568 12.6976 15.2473 12.307L13.8328 10.893ZM17.3628 1.707C20.8763 5.2215 20.8763 10.9185 17.3628 14.433L18.7773 15.847C23.0715 11.5515 23.0715 4.5885 18.7773 0.293L17.3628 1.707ZM13.8328 5.237C15.3944 6.799 15.3944 9.331 13.8328 10.893L15.2473 12.307C17.5895 9.964 17.5895 6.166 15.2473 3.823L13.8328 5.237Z" fill="white"/>
</g>
</svg>
