<svg width="22" height="16" viewBox="0 0 22 16" fill="none" xmlns="http://www.w3.org/2000/svg">
<g id="Icon">
<path id="Path" fill-rule="evenodd" clip-rule="evenodd" d="M10 1L5 5H1V11H5L10 15V1Z" stroke="#697CAC" stroke-width="1.5" stroke-linecap="round" stroke-linejoin="round"/>
<path id="Shape" d="M18.5988 0.399437C18.3059 0.1065 17.831 0.106428 17.5381 0.399277C17.2452 0.692126 17.2451 1.167 17.5379 1.45994L18.5988 0.399437ZM17.5379 14.5394C17.2451 14.8324 17.2452 15.3072 17.5381 15.6001C17.831 15.8929 18.3059 15.8929 18.5988 15.5999L17.5379 14.5394ZM15.0695 3.92971C14.7766 3.63677 14.3017 3.6367 14.0088 3.92955C13.7159 4.2224 13.7158 4.69727 14.0087 4.99021L15.0695 3.92971ZM14.0087 10.9997C13.7158 11.2926 13.7159 11.7675 14.0088 12.0604C14.3017 12.3532 14.7766 12.3531 15.0695 12.0602L14.0087 10.9997ZM17.5379 1.45994C21.149 5.07206 21.149 10.9273 17.5379 14.5394L18.5988 15.5999C22.7954 11.4021 22.7954 4.59731 18.5988 0.399437L17.5379 1.45994ZM14.0087 4.99021C15.6678 6.64984 15.6678 9.34009 14.0087 10.9997L15.0695 12.0602C17.3142 9.81484 17.3142 6.17509 15.0695 3.92971L14.0087 4.99021Z" fill="#697CAC"/>
</g>
</svg>
