<svg width="85" height="84" viewBox="0 0 85 84" fill="none" xmlns="http://www.w3.org/2000/svg">
<g id="icon">
<g id="Rectangle 4" opacity="0.7" filter="url(#filter0_d_153_3061)">
<path d="M12.92 25.6198C13.5518 16.6937 20.2854 10.4965 29.1932 9.64521C33.0932 9.27249 37.615 9 42.5 9C47.385 9 51.9068 9.27249 55.8068 9.64521C64.7146 10.4965 71.4482 16.6937 72.08 25.6198C72.3322 29.1843 72.5 33.5889 72.5 39C72.5 44.4111 72.3322 48.8157 72.08 52.3802C71.4482 61.3063 64.7146 67.5035 55.8068 68.3548C51.9068 68.7275 47.385 69 42.5 69C37.615 69 33.0932 68.7275 29.1932 68.3548C20.2854 67.5035 13.5518 61.3063 12.92 52.3802C12.6677 48.8157 12.5 44.4111 12.5 39C12.5 33.5889 12.6677 29.1843 12.92 25.6198Z" fill="white"/>
</g>
<path id="icon_2" d="M39.2857 37.3454C43.3358 37.3454 45.7583 37.3454 46.5532 37.3454C46.8182 38.7459 46.7614 40.1085 46.3829 41.4334C46.0044 42.7203 45.342 43.7991 44.3957 44.6697C43.5251 45.4646 42.4652 46.0134 41.2161 46.3162C39.8534 46.6191 38.5286 46.6001 37.2417 46.2595C36.2197 45.9945 35.2923 45.5214 34.4595 44.84C33.5511 44.1208 32.8508 43.2692 32.3588 42.285C31.526 40.6952 31.2989 39.0108 31.6774 37.2318C31.791 36.5505 32.0181 35.907 32.3588 35.3014C33.2672 33.4088 34.7245 32.1218 36.7307 31.4405C38.4718 30.8348 40.213 30.8538 41.9542 31.4972C42.8627 31.8379 43.6954 32.3489 44.4524 33.0302C44.3767 33.1438 44.2443 33.2952 44.055 33.4845C43.8657 33.6359 43.7522 33.7494 43.7143 33.8251C43.5629 33.9387 43.3169 34.1658 42.9762 34.5065C42.6734 34.8093 42.4463 35.0553 42.2949 35.2446C41.8028 34.7525 41.235 34.4118 40.5915 34.2226C39.8345 33.9955 39.0775 33.9765 38.3204 34.1658C37.412 34.3551 36.636 34.7714 35.9925 35.4149C35.5005 35.9448 35.122 36.5694 34.857 37.2886C34.5163 38.2727 34.5163 39.2758 34.857 40.2978C35.1977 41.2819 35.8033 42.0768 36.6739 42.6825C37.2038 43.061 37.7716 43.307 38.3772 43.4206C38.945 43.5341 39.5695 43.5341 40.2509 43.4206C40.8944 43.307 41.4621 43.0799 41.9542 42.7392C42.8248 42.1715 43.3358 41.3766 43.4872 40.3546C42.0867 40.3546 40.6862 40.3546 39.2857 40.3546C39.2857 40.1275 39.2857 39.6354 39.2857 38.8784C39.2857 38.0835 39.2857 37.5725 39.2857 37.3454ZM55.7512 37.5157V39.4461H53.0827V42.0579H51.1522V39.4461H48.4837V37.5157H51.1522V34.8471H53.0827V37.5157H55.7512Z" fill="#6B46F6"/>
</g>
<defs>
<filter id="filter0_d_153_3061" x="0.5" y="0" width="84" height="84" filterUnits="userSpaceOnUse" color-interpolation-filters="sRGB">
<feFlood flood-opacity="0" result="BackgroundImageFix"/>
<feColorMatrix in="SourceAlpha" type="matrix" values="0 0 0 0 0 0 0 0 0 0 0 0 0 0 0 0 0 0 127 0" result="hardAlpha"/>
<feOffset dy="3"/>
<feGaussianBlur stdDeviation="6"/>
<feComposite in2="hardAlpha" operator="out"/>
<feColorMatrix type="matrix" values="0 0 0 0 0.419608 0 0 0 0 0.27451 0 0 0 0 0.964706 0 0 0 0.3 0"/>
<feBlend mode="normal" in2="BackgroundImageFix" result="effect1_dropShadow_153_3061"/>
<feBlend mode="normal" in="SourceGraphic" in2="effect1_dropShadow_153_3061" result="shape"/>
</filter>
</defs>
</svg>
