<svg width="81" height="82" viewBox="0 0 81 82" fill="none" xmlns="http://www.w3.org/2000/svg">
<g id="icon">
<g id="Rectangle 4" opacity="0.7" filter="url(#filter0_d_153_3114)">
<path d="M10.92 23.6198C11.5518 14.6937 18.2854 8.49652 27.1932 7.64521C31.0932 7.27249 35.615 7 40.5 7C45.385 7 49.9068 7.27249 53.8068 7.64521C62.7146 8.49653 69.4482 14.6937 70.08 23.6198C70.3322 27.1843 70.5 31.5889 70.5 37C70.5 42.4111 70.3322 46.8157 70.08 50.3802C69.4482 59.3063 62.7146 65.5035 53.8068 66.3548C49.9068 66.7275 45.385 67 40.5 67C35.615 67 31.0932 66.7275 27.1932 66.3548C18.2854 65.5035 11.5518 59.3063 10.92 50.3802C10.6677 46.8157 10.5 42.4111 10.5 37C10.5 31.5889 10.6677 27.1843 10.92 23.6198Z" fill="url(#paint0_linear_153_3114)"/>
<path d="M10.92 23.6198C11.5518 14.6937 18.2854 8.49652 27.1932 7.64521C31.0932 7.27249 35.615 7 40.5 7C45.385 7 49.9068 7.27249 53.8068 7.64521C62.7146 8.49653 69.4482 14.6937 70.08 23.6198C70.3322 27.1843 70.5 31.5889 70.5 37C70.5 42.4111 70.3322 46.8157 70.08 50.3802C69.4482 59.3063 62.7146 65.5035 53.8068 66.3548C49.9068 66.7275 45.385 67 40.5 67C35.615 67 31.0932 66.7275 27.1932 66.3548C18.2854 65.5035 11.5518 59.3063 10.92 50.3802C10.6677 46.8157 10.5 42.4111 10.5 37C10.5 31.5889 10.6677 27.1843 10.92 23.6198Z" stroke="white" stroke-linecap="round" stroke-linejoin="round"/>
</g>
<path id="icon_2" d="M37.2857 35.3454C41.3358 35.3454 43.7583 35.3454 44.5532 35.3454C44.8182 36.7459 44.7614 38.1085 44.3829 39.4334C44.0044 40.7203 43.342 41.7991 42.3957 42.6697C41.5251 43.4646 40.4652 44.0134 39.2161 44.3162C37.8534 44.6191 36.5286 44.6001 35.2417 44.2595C34.2197 43.9945 33.2923 43.5214 32.4595 42.84C31.5511 42.1208 30.8508 41.2692 30.3588 40.285C29.526 38.6952 29.2989 37.0108 29.6774 35.2318C29.791 34.5505 30.0181 33.907 30.3588 33.3014C31.2672 31.4088 32.7245 30.1218 34.7307 29.4405C36.4718 28.8348 38.213 28.8538 39.9542 29.4972C40.8627 29.8379 41.6954 30.3489 42.4524 31.0302C42.3767 31.1438 42.2443 31.2952 42.055 31.4845C41.8657 31.6359 41.7522 31.7494 41.7143 31.8251C41.5629 31.9387 41.3169 32.1658 40.9762 32.5065C40.6734 32.8093 40.4463 33.0553 40.2949 33.2446C39.8028 32.7525 39.235 32.4118 38.5915 32.2226C37.8345 31.9955 37.0775 31.9765 36.3204 32.1658C35.412 32.3551 34.636 32.7714 33.9925 33.4149C33.5005 33.9448 33.122 34.5694 32.857 35.2886C32.5163 36.2727 32.5163 37.2758 32.857 38.2978C33.1977 39.2819 33.8033 40.0768 34.6739 40.6825C35.2038 41.061 35.7716 41.307 36.3772 41.4206C36.945 41.5341 37.5695 41.5341 38.2509 41.4206C38.8944 41.307 39.4621 41.0799 39.9542 40.7392C40.8248 40.1715 41.3358 39.3766 41.4872 38.3546C40.0867 38.3546 38.6862 38.3546 37.2857 38.3546C37.2857 38.1275 37.2857 37.6354 37.2857 36.8784C37.2857 36.0835 37.2857 35.5725 37.2857 35.3454ZM53.7512 35.5157V37.4461H51.0827V40.0579H49.1522V37.4461H46.4837V35.5157H49.1522V32.8471H51.0827V35.5157H53.7512Z" fill="white"/>
</g>
<defs>
<filter id="filter0_d_153_3114" x="0" y="0.5" width="81" height="81" filterUnits="userSpaceOnUse" color-interpolation-filters="sRGB">
<feFlood flood-opacity="0" result="BackgroundImageFix"/>
<feColorMatrix in="SourceAlpha" type="matrix" values="0 0 0 0 0 0 0 0 0 0 0 0 0 0 0 0 0 0 127 0" result="hardAlpha"/>
<feOffset dy="4"/>
<feGaussianBlur stdDeviation="5"/>
<feComposite in2="hardAlpha" operator="out"/>
<feColorMatrix type="matrix" values="0 0 0 0 0.143164 0 0 0 0 0.285068 0 0 0 0 0.587796 0 0 0 0.1 0"/>
<feBlend mode="normal" in2="BackgroundImageFix" result="effect1_dropShadow_153_3114"/>
<feBlend mode="normal" in="SourceGraphic" in2="effect1_dropShadow_153_3114" result="shape"/>
</filter>
<linearGradient id="paint0_linear_153_3114" x1="25.5" y1="18.5" x2="70" y2="73.5" gradientUnits="userSpaceOnUse">
<stop stop-color="#8001FF"/>
<stop offset="1" stop-color="#6C45F7"/>
</linearGradient>
</defs>
</svg>
