<svg width="22" height="16" viewBox="0 0 22 16" fill="none" xmlns="http://www.w3.org/2000/svg">
<g id="Icon">
<path id="Path" fill-rule="evenodd" clip-rule="evenodd" d="M10 1L5 5H1V11H5L10 15V1Z" stroke="#697CAC" stroke-width="1.5" stroke-linecap="round" stroke-linejoin="round"/>
<path id="Shape" d="M18.6004 0.399682C18.3076 0.106744 17.8327 0.106672 17.5398 0.399521C17.2469 0.69237 17.2468 1.16724 17.5396 1.46018L18.6004 0.399682ZM17.5396 14.5397C17.2468 14.8326 17.2469 15.3075 17.5398 15.6003C17.8327 15.8932 18.3076 15.8931 18.6004 15.6002L17.5396 14.5397ZM15.0704 3.92968C14.7776 3.63674 14.3027 3.63667 14.0098 3.92952C13.7169 4.22237 13.7168 4.69724 14.0096 4.99018L15.0704 3.92968ZM14.0096 10.9997C13.7168 11.2926 13.7169 11.7675 14.0098 12.0603C14.3027 12.3532 14.7776 12.3531 15.0704 12.0602L14.0096 10.9997ZM17.5396 1.46018C21.1507 5.07231 21.1507 10.9276 17.5396 14.5397L18.6004 15.6002C22.7971 11.4023 22.7971 4.59756 18.6004 0.399682L17.5396 1.46018ZM14.0096 4.99018C15.6688 6.64981 15.6688 9.34006 14.0096 10.9997L15.0704 12.0602C17.3151 9.81481 17.3151 6.17506 15.0704 3.92968L14.0096 4.99018Z" fill="#697CAC"/>
</g>
</svg>
