<svg width="20" height="20" viewBox="0 0 20 20" fill="none" xmlns="http://www.w3.org/2000/svg">
<g id="Group 48147">
<path id="Vector" d="M0.548828 10.625C0.548828 9.58946 1.38829 8.75 2.42383 8.75C3.45936 8.75 4.29882 9.58946 4.29882 10.625V18.125C4.29882 19.1605 3.45936 20 2.42383 20C1.38829 20 0.548828 19.1605 0.548828 18.125V10.625Z" fill="#9B9EE7" fill-opacity="0.26"/>
<path id="Vector_2" d="M5.54883 10.4166V17.2049C5.54883 18.1519 6.08383 19.0175 6.93079 19.441L6.9931 19.4721C7.68738 19.8192 8.45294 20 9.22916 20H15.9993C17.1911 20 18.2171 19.1589 18.4508 17.9902L19.9508 10.4902C20.2602 8.94331 19.0769 7.49999 17.4993 7.49999H13.0488V2.5C13.0488 1.11929 11.9296 0 10.5488 0C9.85847 0 9.29882 0.55965 9.29882 1.25V2.08334C9.29882 3.16519 8.94794 4.21785 8.29883 5.08333L6.54883 7.41666C5.89972 8.28214 5.54883 9.3348 5.54883 10.4166Z" fill="#9B9EE7" fill-opacity="0.26"/>
</g>
</svg>
