<svg width="30" height="30" viewBox="0 0 30 30" fill="none" xmlns="http://www.w3.org/2000/svg">
<g id="Rectangle 4">
<path d="M0.325916 6.90021C0.662724 3.33672 3.38434 0.881218 6.94013 0.47092C9.17399 0.213157 11.9449 0 15 0C18.0551 0 20.826 0.213157 23.0599 0.470921C26.6157 0.88122 29.3373 3.33671 29.6741 6.9002C29.8621 8.88986 30 11.5313 30 15C30 18.4687 29.8621 21.1101 29.6741 23.0998C29.3373 26.6633 26.6157 29.1188 23.0599 29.5291C20.826 29.7868 18.0551 30 15 30C11.9449 30 9.17399 29.7868 6.94013 29.5291C3.38434 29.1188 0.662724 26.6633 0.325916 23.0998C0.137862 21.1101 0 18.4687 0 15C0 11.5313 0.137861 8.88987 0.325916 6.90021Z" fill="#6B46F6"/>
</g>
</svg>
