<svg width="120" height="120" viewBox="0 0 120 120" fill="none" xmlns="http://www.w3.org/2000/svg">
<path id="Rectangle 4" d="M1.97364 21.5245C3.29578 11.1687 11.3431 4.07303 21.6857 2.65118C31.417 1.31338 44.8329 0 60 0C75.1671 0 88.583 1.31338 98.3143 2.65119C108.657 4.07303 116.704 11.1687 118.026 21.5245C119.097 29.9127 120 42.2483 120 60C120 77.7517 119.097 90.0873 118.026 98.4755C116.704 108.831 108.657 115.927 98.3143 117.349C88.583 118.687 75.1671 120 60 120C44.8329 120 31.417 118.687 21.6857 117.349C11.3431 115.927 3.29578 108.831 1.97364 98.4755C0.902697 90.0872 0 77.7517 0 60C0 42.2483 0.902698 29.9127 1.97364 21.5245Z" fill="#6B46F6"/>
</svg>
